<svg xmlns="http://www.w3.org/2000/svg" viewBox="0 0 256 256" width="256" height="256">
  <defs>
    <linearGradient id="orangeGradient" x1="0%" y1="0%" x2="100%" y2="100%">
      <stop offset="0%" style="stop-color:#FFB74D;stop-opacity:1" />
      <stop offset="100%" style="stop-color:#FF9800;stop-opacity:1" />
    </linearGradient>
  </defs>

  <!-- Background circle -->
  <circle cx="128" cy="128" r="118" fill="url(#orangeGradient)"/>

  <!-- Checklist paper -->
  <rect x="78" y="58" width="100" height="140" rx="8" fill="white"/>

  <!-- Checkboxes with checks -->
  <rect x="90" y="75" width="22" height="22" rx="3" fill="#4CAF50"/>
  <path d="M 94 86 L 99 91 L 107 78" stroke="white" stroke-width="3" fill="none" stroke-linecap="round" stroke-linejoin="round"/>

  <rect x="90" y="110" width="22" height="22" rx="3" fill="#4CAF50"/>
  <path d="M 94 121 L 99 126 L 107 113" stroke="white" stroke-width="3" fill="none" stroke-linecap="round" stroke-linejoin="round"/>

  <rect x="90" y="145" width="22" height="22" rx="3" fill="#4CAF50"/>
  <path d="M 94 156 L 99 161 L 107 148" stroke="white" stroke-width="3" fill="none" stroke-linecap="round" stroke-linejoin="round"/>

  <!-- Lines representing text -->
  <rect x="120" y="82" width="45" height="3" rx="1.5" fill="#9E9E9E"/>
  <rect x="120" y="117" width="40" height="3" rx="1.5" fill="#9E9E9E"/>
  <rect x="120" y="152" width="42" height="3" rx="1.5" fill="#9E9E9E"/>

  <!-- Star at top (gamification) -->
  <path d="M 128 35 L 133 48 L 147 48 L 136 56 L 141 69 L 128 61 L 115 69 L 120 56 L 109 48 L 123 48 Z"
        fill="#FFC107" stroke="#FF9800" stroke-width="2"/>
</svg>
